# xmcd
#
# Track frame offsets: 
#        150
#        13652
#        26412
#        39259
#        53324
#        67735
#        81900
#        96038
#        110333
#        123731
#        137132
#        150746
#        164629
#        177859
#        191920
#        205999
#        220453
#        234247
#        248163
#        262728
#        276790
#        291174
#        305166
#        319012
#
# Disc length: 4434 seconds
#
# Revision: 0
# Processed by: cddbd v1.5.2PL0 Copyright (c) Steve Scherf et al.
# Submitted via: ExactAudioCopy v0.90b4
#
DISCID=51115018
DTITLE=Various Artist - Fiddlin' John Carson - Volume 5 (11Oct27-17De
DTITLE=c29)
DYEAR=1997
DGENRE=Folk
TTITLE0=Fiddlin' John Carson and His Virginia Reelers - The Little Log C
TTITLE0=abin By The Stream
TTITLE1=Fiddlin' John Carson and His Virginia Reelers - Christmas Time W
TTITLE1=ill Soon Be Over
TTITLE2=Fiddlin' John Carson and His Virginia Reelers - Run Along Home, 
TTITLE2=Sandy
TTITLE3=Fiddlin' John Carson - Moonshine Kate
TTITLE4=Fiddlin' John Carson - John Makes Good Licker
TTITLE5=Fiddlin' John Carson - I'm Going To Take The Train To Charlott
TTITLE5=e
TTITLE6=Fiddlin' John Carson - Ain't No Bugs On Me
TTITLE7=Fiddlin' John Carson - The Burgular and The Old Maid
TTITLE8=Fiddlin' John Carson and Moonshine Kate - The Hawk and The Buzzard
TTITLE9=Fiddlin' John Carson and Moonshine Kate - Down South Where The S
TTITLE9=ugar Cane Grows
TTITLE10=Fiddlin' John Carson and Moonshine Kate - Meet Her When The Sun
TTITLE10=Goes Down
TTITLE11=Fiddlin' John Carson and Moonshine Kate - My Ford Sedan
TTITLE12=Fiddlin' John Carson and Moonshine Kate - You Can't Get Milk Fr
TTITLE12=om A Cow Named Ben
TTITLE13=Fiddlin' John Carson and Moonshine Kate - Going To The County F
TTITLE13=air
TTITLE14=Fiddlin' John Carson and Moonshine Kate - Welcome To The Travel
TTITLE14=ers Home No-2
TTITLE15=Fiddlin' John Carson and Moonshine Kate - You'll Never Miss You
TTITLE15=r Mother Until She's Gone No-2
TTITLE16=Fiddlin' John Carson and Moonshine Kate - John Makes Good Licke
TTITLE16=r - Part 3
TTITLE17=Fiddlin' John Carson and Moonshine Kate - John Makes Good Licke
TTITLE17=r - Part 4
TTITLE18=Fiddlin' John Carson and Moonshine Kate - She's More Like Her M
TTITLE18=other Every Day
TTITLE19=Fiddlin' John Carson and Moonshine Kate - Times Are Not Like Th
TTITLE19=ey UsedTo Be
TTITLE20=Fiddlin' John Carson and Moonshine Kate - Pa's Birthday
TTITLE21=Fiddlin' John Carson and Moonshine Kate - Corn Licker and Barbecu
TTITLE21=e - Part I
TTITLE22=Fiddlin' John Carson and Moonshine Kate - Corn Kicker and Barbeqs
TTITLE22=
TTITLE23=Fiddlin' John Carson and Moonshine Kate - Who's The Best Fiddle
TTITLE23=r?
EXTD=Full title =Fiddlin' John Carson - Complete Recorded Works in Ch
EXTD=ronological Order - Volume 5 - 11 October 1927 to 17 December 192
EXTD=9\nDocument Records, Austria (DOCD-8018)
EXTT0=
EXTT1=
EXTT2=
EXTT3=
EXTT4=
EXTT5=
EXTT6=
EXTT7=
EXTT8=
EXTT9=
EXTT10=
EXTT11=
EXTT12=
EXTT13=
EXTT14=
EXTT15=
EXTT16=
EXTT17=
EXTT18=
EXTT19=
EXTT20=
EXTT21=
EXTT22=
EXTT23=
PLAYORDER=
